<mxfile host="65bd71144e">
    <diagram id="SLTXZN1UZLYizokisdBo" name="Page-1">
        <mxGraphModel dx="1064" dy="790" grid="1" gridSize="10" guides="1" tooltips="1" connect="1" arrows="1" fold="1" page="1" pageScale="1" pageWidth="1600" pageHeight="900" math="0" shadow="0">
            <root>
                <mxCell id="0"/>
                <mxCell id="1" parent="0"/>
                <mxCell id="2" value="" style="strokeWidth=1;shadow=0;dashed=0;align=center;html=1;shape=mxgraph.mockup.containers.browserWindow;rSize=0;strokeColor=#666666;strokeColor2=#008cff;strokeColor3=#c4c4c4;mainText=,;recursiveResize=0;" parent="1" vertex="1">
                    <mxGeometry x="90" y="150" width="1290" height="970" as="geometry"/>
                </mxCell>
                <mxCell id="3" value="Page 1" style="strokeWidth=1;shadow=0;dashed=0;align=center;html=1;shape=mxgraph.mockup.containers.anchor;fontSize=17;fontColor=#666666;align=left;" parent="2" vertex="1">
                    <mxGeometry x="60" y="12" width="110" height="26" as="geometry"/>
                </mxCell>
                <mxCell id="4" value="https://www.draw.io" style="strokeWidth=1;shadow=0;dashed=0;align=center;html=1;shape=mxgraph.mockup.containers.anchor;rSize=0;fontSize=17;fontColor=#666666;align=left;" parent="2" vertex="1">
                    <mxGeometry x="130" y="60" width="250" height="26" as="geometry"/>
                </mxCell>
                <mxCell id="23" value="" style="shape=mxgraph.mockup.containers.marginRect;rectMarginTop=10;strokeColor=#666666;strokeWidth=1;dashed=0;rounded=1;arcSize=5;recursiveResize=0;" parent="2" vertex="1">
                    <mxGeometry x="40" y="325" width="220" height="140" as="geometry"/>
                </mxCell>
                <mxCell id="24" value="Integration Styles" style="shape=rect;strokeColor=none;fillColor=#008cff;strokeWidth=1;dashed=0;rounded=1;arcSize=20;fontColor=#ffffff;fontSize=17;spacing=2;spacingTop=-2;align=left;autosize=1;spacingLeft=4;resizeWidth=0;resizeHeight=0;perimeter=none;" parent="23" vertex="1">
                    <mxGeometry x="5" width="150" height="30" as="geometry"/>
                </mxCell>
                <mxCell id="22" value="Events" style="strokeWidth=1;shadow=0;dashed=0;align=center;html=1;shape=mxgraph.mockup.forms.rrect;rSize=0;fillColor=#eeeeee;strokeColor=#999999;gradientColor=#cccccc;align=left;spacingLeft=4;fontSize=17;fontColor=#666666;labelPosition=right;" parent="23" vertex="1">
                    <mxGeometry x="30" y="55" width="15" height="15" as="geometry"/>
                </mxCell>
                <mxCell id="25" value="APIs" style="strokeWidth=1;shadow=0;dashed=0;align=center;html=1;shape=mxgraph.mockup.forms.rrect;rSize=0;fillColor=#eeeeee;strokeColor=#999999;gradientColor=#cccccc;align=left;spacingLeft=4;fontSize=17;fontColor=#666666;labelPosition=right;" parent="23" vertex="1">
                    <mxGeometry x="30" y="90" width="15" height="15" as="geometry"/>
                </mxCell>
                <mxCell id="30" value="" style="shape=mxgraph.mockup.containers.marginRect;rectMarginTop=10;strokeColor=#666666;strokeWidth=1;dashed=0;rounded=1;arcSize=5;recursiveResize=0;" parent="2" vertex="1">
                    <mxGeometry x="40" y="120" width="220" height="180" as="geometry"/>
                </mxCell>
                <mxCell id="31" value="Integration Domain" style="shape=rect;strokeColor=none;fillColor=#008cff;strokeWidth=1;dashed=0;rounded=1;arcSize=20;fontColor=#ffffff;fontSize=17;spacing=2;spacingTop=-2;align=left;autosize=1;spacingLeft=4;resizeWidth=0;resizeHeight=0;perimeter=none;" parent="30" vertex="1">
                    <mxGeometry x="5" width="170" height="30" as="geometry"/>
                </mxCell>
                <mxCell id="7" value="" style="strokeWidth=1;shadow=0;dashed=0;align=center;html=1;shape=mxgraph.mockup.forms.rrect;rSize=0;strokeColor=#999999;fillColor=#ffffff;" parent="30" vertex="1">
                    <mxGeometry x="20" y="50" width="180" height="110" as="geometry"/>
                </mxCell>
                <mxCell id="8" value="Domains" style="strokeWidth=1;shadow=0;dashed=0;align=center;html=1;shape=mxgraph.mockup.forms.rrect;rSize=0;strokeColor=#999999;fontColor=#008cff;fontSize=17;fillColor=#ffffff;resizeWidth=1;" parent="7" vertex="1">
                    <mxGeometry width="180.00000000000003" height="30" relative="1" as="geometry"/>
                </mxCell>
                <mxCell id="9" value="Court Case" style="strokeWidth=1;shadow=0;dashed=0;align=center;html=1;shape=mxgraph.mockup.forms.anchor;fontSize=17;fontColor=#666666;align=left;spacingLeft=5;resizeWidth=1;fillColor=#CCE5FF;strokeColor=none;labelBackgroundColor=#CCE5FF;" parent="7" vertex="1">
                    <mxGeometry width="180.00000000000003" height="20" relative="1" as="geometry">
                        <mxPoint y="30" as="offset"/>
                    </mxGeometry>
                </mxCell>
                <mxCell id="10" value="Court Scheduling" style="strokeWidth=1;shadow=0;dashed=0;align=center;html=1;shape=mxgraph.mockup.forms.anchor;fontSize=17;fontColor=#666666;align=left;spacingLeft=5;resizeWidth=1;" parent="7" vertex="1">
                    <mxGeometry width="180.00000000000003" height="20" relative="1" as="geometry">
                        <mxPoint y="50" as="offset"/>
                    </mxGeometry>
                </mxCell>
                <mxCell id="11" value="Courts Digital Display" style="strokeWidth=1;shadow=0;dashed=0;align=center;html=1;shape=mxgraph.mockup.forms.rrect;rSize=0;fontSize=17;fontColor=#666666;align=left;spacingLeft=5;fillColor=none;strokeColor=none;resizeWidth=1;" parent="7" vertex="1">
                    <mxGeometry width="180.00000000000003" height="20" relative="1" as="geometry">
                        <mxPoint y="70" as="offset"/>
                    </mxGeometry>
                </mxCell>
                <mxCell id="12" value="" style="strokeWidth=1;shadow=0;dashed=0;align=center;html=1;shape=mxgraph.mockup.forms.anchor;fontSize=17;fontColor=#666666;align=left;spacingLeft=5;resizeWidth=1;" parent="7" vertex="1">
                    <mxGeometry width="180.00000000000003" height="20" relative="1" as="geometry">
                        <mxPoint y="90" as="offset"/>
                    </mxGeometry>
                </mxCell>
                <mxCell id="80" value="" style="shape=mxgraph.mockup.containers.marginRect;rectMarginTop=10;strokeColor=#666666;strokeWidth=1;dashed=0;rounded=1;arcSize=5;recursiveResize=0;" vertex="1" parent="2">
                    <mxGeometry x="380" y="360" width="520" height="90" as="geometry"/>
                </mxCell>
                <mxCell id="83" value="16 integrtation components found" style="strokeWidth=1;shadow=0;dashed=0;align=center;html=1;shape=mxgraph.mockup.text.textBox;fontColor=#666666;align=left;fontSize=17;spacingLeft=4;spacingTop=-3;strokeColor=none;mainText=" vertex="1" parent="2">
                    <mxGeometry x="380" y="290" width="300" height="30" as="geometry"/>
                </mxCell>
                <mxCell id="84" value="Court Case Management" style="strokeWidth=1;shadow=0;dashed=0;align=center;html=1;shape=mxgraph.mockup.text.textBox;fontColor=#666666;align=left;fontSize=17;spacingLeft=4;spacingTop=-3;strokeColor=none;mainText=" vertex="1" parent="2">
                    <mxGeometry x="390" y="380" width="150" height="30" as="geometry"/>
                </mxCell>
                <mxCell id="85" value="&lt;font style=&quot;font-size: 14px&quot;&gt;Notification Service / Court Case Created&lt;/font&gt;" style="strokeWidth=1;shadow=0;dashed=0;align=center;html=1;shape=mxgraph.mockup.text.textBox;fontColor=#666666;align=left;fontSize=17;spacingLeft=4;spacingTop=-3;strokeColor=none;mainText=" vertex="1" parent="2">
                    <mxGeometry x="390" y="410" width="150" height="30" as="geometry"/>
                </mxCell>
                <mxCell id="86" value="&lt;font style=&quot;font-size: 14px&quot;&gt;Type: Event&lt;/font&gt;" style="strokeWidth=1;shadow=0;dashed=0;align=center;html=1;shape=mxgraph.mockup.text.textBox;fontColor=#666666;align=left;fontSize=17;spacingLeft=4;spacingTop=-3;strokeColor=none;mainText=" vertex="1" parent="2">
                    <mxGeometry x="750" y="410" width="90" height="30" as="geometry"/>
                </mxCell>
                <mxCell id="89" value="" style="shape=mxgraph.mockup.containers.marginRect;rectMarginTop=10;strokeColor=#666666;strokeWidth=1;dashed=0;rounded=1;arcSize=5;recursiveResize=0;" vertex="1" parent="2">
                    <mxGeometry x="380" y="470" width="520" height="90" as="geometry"/>
                </mxCell>
                <mxCell id="90" value="Court Case Management" style="strokeWidth=1;shadow=0;dashed=0;align=center;html=1;shape=mxgraph.mockup.text.textBox;fontColor=#666666;align=left;fontSize=17;spacingLeft=4;spacingTop=-3;strokeColor=none;mainText=" vertex="1" parent="2">
                    <mxGeometry x="390" y="490" width="150" height="30" as="geometry"/>
                </mxCell>
                <mxCell id="91" value="&lt;font style=&quot;font-size: 14px&quot;&gt;Lookup Service / Get Accused History&lt;/font&gt;" style="strokeWidth=1;shadow=0;dashed=0;align=center;html=1;shape=mxgraph.mockup.text.textBox;fontColor=#666666;align=left;fontSize=17;spacingLeft=4;spacingTop=-3;strokeColor=none;mainText=" vertex="1" parent="2">
                    <mxGeometry x="390" y="520" width="150" height="30" as="geometry"/>
                </mxCell>
                <mxCell id="92" value="&lt;font style=&quot;font-size: 14px&quot;&gt;Type: API&lt;/font&gt;" style="strokeWidth=1;shadow=0;dashed=0;align=center;html=1;shape=mxgraph.mockup.text.textBox;fontColor=#666666;align=left;fontSize=17;spacingLeft=4;spacingTop=-3;strokeColor=none;mainText=" vertex="1" parent="2">
                    <mxGeometry x="750" y="520" width="90" height="30" as="geometry"/>
                </mxCell>
                <mxCell id="93" value="" style="shape=mxgraph.mockup.containers.marginRect;rectMarginTop=10;strokeColor=#666666;strokeWidth=1;dashed=0;rounded=1;arcSize=5;recursiveResize=0;" vertex="1" parent="2">
                    <mxGeometry x="380" y="580" width="520" height="90" as="geometry"/>
                </mxCell>
                <mxCell id="94" value="Court Scheduling Management" style="strokeWidth=1;shadow=0;dashed=0;align=center;html=1;shape=mxgraph.mockup.text.textBox;fontColor=#666666;align=left;fontSize=17;spacingLeft=4;spacingTop=-3;strokeColor=none;mainText=" vertex="1" parent="2">
                    <mxGeometry x="390" y="600" width="150" height="30" as="geometry"/>
                </mxCell>
                <mxCell id="95" value="&lt;font style=&quot;font-size: 14px&quot;&gt;SCSS Service / Get Parties&lt;/font&gt;" style="strokeWidth=1;shadow=0;dashed=0;align=center;html=1;shape=mxgraph.mockup.text.textBox;fontColor=#666666;align=left;fontSize=17;spacingLeft=4;spacingTop=-3;strokeColor=none;mainText=" vertex="1" parent="2">
                    <mxGeometry x="390" y="630" width="150" height="30" as="geometry"/>
                </mxCell>
                <mxCell id="96" value="&lt;font style=&quot;font-size: 14px&quot;&gt;Type: API&lt;/font&gt;" style="strokeWidth=1;shadow=0;dashed=0;align=center;html=1;shape=mxgraph.mockup.text.textBox;fontColor=#666666;align=left;fontSize=17;spacingLeft=4;spacingTop=-3;strokeColor=none;mainText=" vertex="1" parent="2">
                    <mxGeometry x="750" y="630" width="90" height="30" as="geometry"/>
                </mxCell>
                <mxCell id="97" value="" style="verticalLabelPosition=bottom;shadow=0;dashed=0;align=center;html=1;verticalAlign=top;strokeWidth=1;shape=mxgraph.mockup.navigation.pageControl;fillColor=#999999;strokeColor=#ddeeff;fontSize=14;" vertex="1" parent="2">
                    <mxGeometry x="595" y="800" width="100" height="30" as="geometry"/>
                </mxCell>
                <mxCell id="5" value="Inspired by:&lt;br&gt;&lt;ul&gt;&lt;li&gt;Data Catalogue&amp;nbsp;https://catalogue.data.gov.bc.ca/dataset/old-growth-technical-advisory-panel-tap-recruitment-forest&lt;/li&gt;&lt;li&gt;NRS Common Show Case&amp;nbsp;https://bcgov.github.io/common-service-showcase/services/chefs.html&lt;/li&gt;&lt;li&gt;Red Hat Marketplace&amp;nbsp;https://marketplace.redhat.com/en-us/products/insightedge&lt;/li&gt;&lt;li&gt;Async API: https://medium.com/event-driven-utopia/understanding-asyncapis-with-a-practical-example-ee2b4be221d8&lt;/li&gt;&lt;li&gt;BC Digital Trust&amp;nbsp;https://digital.gov.bc.ca/digital-trust/projects-and-initiatives/credentials-for-people/&lt;/li&gt;&lt;/ul&gt;" style="text;html=1;resizable=0;autosize=1;align=left;verticalAlign=middle;points=[];fillColor=none;strokeColor=none;rounded=0;" parent="1" vertex="1">
                    <mxGeometry x="91" y="3" width="680" height="140" as="geometry"/>
                </mxCell>
                <mxCell id="67" value="Search Integrations ..." style="strokeWidth=1;shadow=0;dashed=0;align=center;html=1;shape=mxgraph.mockup.forms.searchBox;strokeColor=#999999;mainText=;strokeColor2=#008cff;fontColor=#666666;fontSize=17;align=left;spacingLeft=3;" vertex="1" parent="1">
                    <mxGeometry x="470" y="390" width="470" height="30" as="geometry"/>
                </mxCell>
            </root>
        </mxGraphModel>
    </diagram>
</mxfile>